<svg xmlns="http://www.w3.org/2000/svg" viewBox="0 0 1200 630" width="1200" height="630">
  <defs>
    <!-- Gradient brand identique a l'icone : violet -> fuchsia -> cyan -->
    <linearGradient id="brand" x1="0" y1="0" x2="1200" y2="630" gradientUnits="userSpaceOnUse">
      <stop offset="0" stop-color="#7c3aed"/>
      <stop offset="0.5" stop-color="#d946ef"/>
      <stop offset="1" stop-color="#06b6d4"/>
    </linearGradient>

    <!-- Blob radial doux pour donner du relief sans surcharger -->
    <radialGradient id="blob1" cx="20%" cy="30%" r="50%">
      <stop offset="0" stop-color="#7c3aed" stop-opacity="0.55"/>
      <stop offset="1" stop-color="#7c3aed" stop-opacity="0"/>
    </radialGradient>
    <radialGradient id="blob2" cx="85%" cy="75%" r="55%">
      <stop offset="0" stop-color="#06b6d4" stop-opacity="0.5"/>
      <stop offset="1" stop-color="#06b6d4" stop-opacity="0"/>
    </radialGradient>
    <radialGradient id="blob3" cx="65%" cy="20%" r="35%">
      <stop offset="0" stop-color="#d946ef" stop-opacity="0.35"/>
      <stop offset="1" stop-color="#d946ef" stop-opacity="0"/>
    </radialGradient>

    <!-- Filter pour le glow texte -->
    <filter id="glow" x="-20%" y="-20%" width="140%" height="140%">
      <feGaussianBlur stdDeviation="6" result="blur"/>
      <feComposite in="SourceGraphic" in2="blur" operator="over"/>
    </filter>

    <!-- Grain subtil pour finition premium -->
    <filter id="grain">
      <feTurbulence type="fractalNoise" baseFrequency="0.9" numOctaves="2" stitchTiles="stitch"/>
      <feColorMatrix values="0 0 0 0 1 0 0 0 0 1 0 0 0 0 1 0 0 0 0.025 0"/>
      <feComposite in2="SourceGraphic" operator="in"/>
    </filter>
  </defs>

  <!-- Fond noir profond, identique a l'app -->
  <rect width="1200" height="630" fill="#050508"/>

  <!-- Blobs colores en arriere-plan, subtils -->
  <rect width="1200" height="630" fill="url(#blob1)"/>
  <rect width="1200" height="630" fill="url(#blob2)"/>
  <rect width="1200" height="630" fill="url(#blob3)"/>

  <!-- Grille de "posters" stylises en arriere-plan a tres faible opacite,
       evoque visuellement le concept 'sorties cinema' sans surcharger.
       Format 2:3 vertical x 6 lignes x decales. -->
  <g opacity="0.06">
    <!-- Ligne 1 -->
    <rect x="-30" y="-20" width="100" height="150" rx="10" fill="white"/>
    <rect x="90" y="-20" width="100" height="150" rx="10" fill="white"/>
    <rect x="210" y="-20" width="100" height="150" rx="10" fill="white"/>
    <rect x="330" y="-20" width="100" height="150" rx="10" fill="white"/>
    <rect x="450" y="-20" width="100" height="150" rx="10" fill="white"/>
    <rect x="570" y="-20" width="100" height="150" rx="10" fill="white"/>
    <rect x="690" y="-20" width="100" height="150" rx="10" fill="white"/>
    <rect x="810" y="-20" width="100" height="150" rx="10" fill="white"/>
    <rect x="930" y="-20" width="100" height="150" rx="10" fill="white"/>
    <rect x="1050" y="-20" width="100" height="150" rx="10" fill="white"/>
    <rect x="1170" y="-20" width="100" height="150" rx="10" fill="white"/>
    <!-- Ligne 2 (decalee de -60px) -->
    <rect x="-90" y="500" width="100" height="150" rx="10" fill="white"/>
    <rect x="30" y="500" width="100" height="150" rx="10" fill="white"/>
    <rect x="150" y="500" width="100" height="150" rx="10" fill="white"/>
    <rect x="270" y="500" width="100" height="150" rx="10" fill="white"/>
    <rect x="390" y="500" width="100" height="150" rx="10" fill="white"/>
    <rect x="510" y="500" width="100" height="150" rx="10" fill="white"/>
    <rect x="630" y="500" width="100" height="150" rx="10" fill="white"/>
    <rect x="750" y="500" width="100" height="150" rx="10" fill="white"/>
    <rect x="870" y="500" width="100" height="150" rx="10" fill="white"/>
    <rect x="990" y="500" width="100" height="150" rx="10" fill="white"/>
    <rect x="1110" y="500" width="100" height="150" rx="10" fill="white"/>
  </g>

  <!-- Logo brand : carre arrondi avec l'icone play-pause de l'app -->
  <g transform="translate(72, 230)">
    <rect width="170" height="170" rx="36" fill="url(#brand)"/>
    <!-- C arc -->
    <path d="M127 47 a52 52 0 1 0 0 76" stroke="white" stroke-width="14" stroke-linecap="round" fill="none"/>
    <!-- Play triangle -->
    <path d="M85 65 L125 85 L85 105 Z" fill="white"/>
  </g>

  <!-- Texte principal -->
  <g transform="translate(290, 230)">
    <!-- 'CineLume' wordmark en blanc, grande typo -->
    <text x="0" y="80" font-family="Inter, system-ui, -apple-system, sans-serif" font-size="112" font-weight="800" fill="white" letter-spacing="-3">CineLume</text>

    <!-- Sous-titre principal en degrade -->
    <text x="0" y="148" font-family="Inter, system-ui, -apple-system, sans-serif" font-size="36" font-weight="600" fill="url(#brand)" letter-spacing="-0.5">Sorties cinéma &amp; streaming</text>

    <!-- Tagline en blanc 70% -->
    <text x="0" y="210" font-family="Inter, system-ui, -apple-system, sans-serif" font-size="22" font-weight="500" fill="rgba(255,255,255,0.7)">L'agenda des films à voir, semaine par semaine.</text>
  </g>

  <!-- Bandeau positionnement en bas : "Gratuit · Sans pub · Sans abonnement"
       avec des chips arrondies -->
  <g transform="translate(72, 520)">
    <!-- Chip Gratuit -->
    <g transform="translate(0, 0)">
      <rect x="0" y="0" width="170" height="56" rx="28" fill="rgba(124, 58, 237, 0.18)" stroke="rgba(124, 58, 237, 0.6)" stroke-width="1.5"/>
      <text x="85" y="36" font-family="Inter, system-ui, sans-serif" font-size="20" font-weight="700" fill="white" text-anchor="middle">100 % Gratuit</text>
    </g>
    <!-- Chip Sans pub -->
    <g transform="translate(190, 0)">
      <rect x="0" y="0" width="160" height="56" rx="28" fill="rgba(217, 70, 239, 0.18)" stroke="rgba(217, 70, 239, 0.6)" stroke-width="1.5"/>
      <text x="80" y="36" font-family="Inter, system-ui, sans-serif" font-size="20" font-weight="700" fill="white" text-anchor="middle">Sans pub</text>
    </g>
    <!-- Chip Sans abonnement -->
    <g transform="translate(370, 0)">
      <rect x="0" y="0" width="240" height="56" rx="28" fill="rgba(6, 182, 212, 0.18)" stroke="rgba(6, 182, 212, 0.6)" stroke-width="1.5"/>
      <text x="120" y="36" font-family="Inter, system-ui, sans-serif" font-size="20" font-weight="700" fill="white" text-anchor="middle">Sans abonnement</text>
    </g>
    <!-- Chip Sans inscription -->
    <g transform="translate(630, 0)">
      <rect x="0" y="0" width="230" height="56" rx="28" fill="rgba(255,255,255,0.06)" stroke="rgba(255,255,255,0.2)" stroke-width="1.5"/>
      <text x="115" y="36" font-family="Inter, system-ui, sans-serif" font-size="20" font-weight="700" fill="white" text-anchor="middle">Sans inscription</text>
    </g>
  </g>

  <!-- URL en bas a droite, discret -->
  <text x="1128" y="600" font-family="Inter, system-ui, sans-serif" font-size="16" font-weight="500" fill="rgba(255,255,255,0.4)" text-anchor="end">cinelume</text>
</svg>
